<?xml version="1.0" encoding="utf-8"?>
<!-- Generator: Adobe Illustrator 28.0.0, SVG Export Plug-In . SVG Version: 6.00 Build 0)  -->
<svg version="1.1" id="Calque_1" xmlns="http://www.w3.org/2000/svg" xmlns:xlink="http://www.w3.org/1999/xlink" x="0px" y="0px"
	 viewBox="0 0 448 512" style="enable-background:new 0 0 448 512;" xml:space="preserve">
<style type="text/css">
	.st0{fill:#FFFFFF;}
</style>
<path class="st0" d="M96,128c0,70.7,57.3,128,128,128s128-57.3,128-128S294.7,0,224,0S96,57.3,96,128z M190.5,328.2l18.6,31
	l-33.3,123.9l-36-146.9c-2-8.1-9.8-13.4-17.9-11.3C51.9,342.4,0,405.8,0,481.3c0,17,13.8,30.7,30.7,30.7h131.8c0,0,0,0,0.1,0h5.4
	h112h5.5c0,0,0,0,0.1,0h131.7c17,0,30.7-13.8,30.7-30.7c0-75.5-51.9-138.9-121.9-156.4c-8.1-2-15.9,3.3-17.9,11.3l-36,146.9
	l-33.3-123.9l18.6-31c6.4-10.7-1.3-24.2-13.7-24.2H224h-19.7c-12.4,0-20.1,13.6-13.7,24.2H190.5z"/>
</svg>
