<?xml version="1.0" encoding="UTF-8"?>
<svg xmlns="http://www.w3.org/2000/svg" xmlns:xlink="http://www.w3.org/1999/xlink" width="37px" height="37px" viewBox="0 0 37 37" version="1.1">
<g id="surface1">
<path style=" stroke:none;fill-rule:nonzero;fill:rgb(83.529412%,0.392157%,8.627451%);fill-opacity:1;" d="M 26.535156 29.808594 L 7.191406 10.464844 C 5.570312 12.726562 4.625 15.5 4.625 18.5 C 4.625 26.160156 10.839844 32.375 18.5 32.375 C 21.5 32.375 24.273438 31.429688 26.535156 29.808594 Z M 29.808594 26.535156 C 31.429688 24.273438 32.375 21.5 32.375 18.5 C 32.375 10.839844 26.160156 4.625 18.5 4.625 C 15.5 4.625 12.726562 5.570312 10.464844 7.191406 Z M 0 18.5 C 0 8.28125 8.28125 0 18.5 0 C 28.71875 0 37 8.28125 37 18.5 C 37 28.71875 28.71875 37 18.5 37 C 8.28125 37 0 28.71875 0 18.5 Z M 0 18.5 "/>
</g>
</svg>
