<?xml version="1.0" encoding="utf-8"?>
<!-- Generator: Adobe Illustrator 28.0.0, SVG Export Plug-In . SVG Version: 6.00 Build 0)  -->
<svg version="1.1" id="Calque_1" xmlns="http://www.w3.org/2000/svg" xmlns:xlink="http://www.w3.org/1999/xlink" x="0px" y="0px"
	 viewBox="0 0 448 512" style="enable-background:new 0 0 448 512;" xml:space="preserve">
<style type="text/css">
	.st0{fill:#FFFFFF;}
</style>
<path class="st0" d="M384,336H192c-8.8,0-16-7.2-16-16V64c0-8.8,7.2-16,16-16h140.1l67.9,67.9V320C400,328.8,392.8,336,384,336z
	 M192,384h192c35.3,0,64-28.7,64-64V115.9c0-12.7-5.1-24.9-14.1-33.9l-67.8-67.9c-9-9-21.2-14.1-33.9-14.1H192
	c-35.3,0-64,28.7-64,64v256C128,355.3,156.7,384,192,384z M64,128c-35.3,0-64,28.7-64,64v256c0,35.3,28.7,64,64,64h192
	c35.3,0,64-28.7,64-64v-32h-48v32c0,8.8-7.2,16-16,16H64c-8.8,0-16-7.2-16-16V192c0-8.8,7.2-16,16-16h32v-48H64z"/>
</svg>
