<?xml version="1.0" encoding="UTF-8"?>
<svg xmlns="http://www.w3.org/2000/svg" xmlns:xlink="http://www.w3.org/1999/xlink" width="37px" height="37px" viewBox="0 0 37 37" version="1.1">
<g id="surface1">
<path style=" stroke:none;fill-rule:nonzero;fill:rgb(0%,0%,0%);fill-opacity:1;" d="M 4.109375 5.78125 C 3.546875 5.78125 3.082031 6.300781 3.082031 6.9375 L 3.082031 30.0625 C 3.082031 30.699219 3.546875 31.21875 4.109375 31.21875 L 32.890625 31.21875 C 33.453125 31.21875 33.917969 30.699219 33.917969 30.0625 L 33.917969 6.9375 C 33.917969 6.300781 33.453125 5.78125 32.890625 5.78125 Z M 0 6.9375 C 0 4.386719 1.84375 2.3125 4.109375 2.3125 L 32.890625 2.3125 C 35.15625 2.3125 37 4.386719 37 6.9375 L 37 30.0625 C 37 32.613281 35.15625 34.6875 32.890625 34.6875 L 4.109375 34.6875 C 1.84375 34.6875 0 32.613281 0 30.0625 Z M 6.167969 11.5625 C 6.167969 10.285156 7.085938 9.25 8.222656 9.25 C 9.359375 9.25 10.277344 10.285156 10.277344 11.5625 C 10.277344 12.839844 9.359375 13.875 8.222656 13.875 C 7.085938 13.875 6.167969 12.839844 6.167969 11.5625 Z M 12.847656 11.5625 C 12.847656 10.601562 13.535156 9.828125 14.390625 9.828125 L 28.777344 9.828125 C 29.632812 9.828125 30.320312 10.601562 30.320312 11.5625 C 30.320312 12.523438 29.632812 13.296875 28.777344 13.296875 L 14.390625 13.296875 C 13.535156 13.296875 12.847656 12.523438 12.847656 11.5625 Z M 12.847656 18.5 C 12.847656 17.539062 13.535156 16.765625 14.390625 16.765625 L 28.777344 16.765625 C 29.632812 16.765625 30.320312 17.539062 30.320312 18.5 C 30.320312 19.460938 29.632812 20.234375 28.777344 20.234375 L 14.390625 20.234375 C 13.535156 20.234375 12.847656 19.460938 12.847656 18.5 Z M 12.847656 25.4375 C 12.847656 24.476562 13.535156 23.703125 14.390625 23.703125 L 28.777344 23.703125 C 29.632812 23.703125 30.320312 24.476562 30.320312 25.4375 C 30.320312 26.398438 29.632812 27.171875 28.777344 27.171875 L 14.390625 27.171875 C 13.535156 27.171875 12.847656 26.398438 12.847656 25.4375 Z M 8.222656 20.8125 C 7.085938 20.8125 6.167969 19.777344 6.167969 18.5 C 6.167969 17.222656 7.085938 16.1875 8.222656 16.1875 C 9.359375 16.1875 10.277344 17.222656 10.277344 18.5 C 10.277344 19.777344 9.359375 20.8125 8.222656 20.8125 Z M 6.167969 25.4375 C 6.167969 24.160156 7.085938 23.125 8.222656 23.125 C 9.359375 23.125 10.277344 24.160156 10.277344 25.4375 C 10.277344 26.714844 9.359375 27.75 8.222656 27.75 C 7.085938 27.75 6.167969 26.714844 6.167969 25.4375 Z M 6.167969 25.4375 "/>
</g>
</svg>
