<?xml version="1.0" encoding="utf-8"?>
<!-- Generator: Adobe Illustrator 28.0.0, SVG Export Plug-In . SVG Version: 6.00 Build 0)  -->
<svg version="1.1" id="Calque_1" xmlns="http://www.w3.org/2000/svg" xmlns:xlink="http://www.w3.org/1999/xlink" x="0px" y="0px"
	 viewBox="0 0 25 25" style="enable-background:new 0 0 25 25;" xml:space="preserve">
<style type="text/css">
	.st0{fill:#FFFFFF;}
</style>
<path class="st0" d="M24.3,0.3c0.5,0.3,0.8,0.9,0.7,1.5l-3.1,20.3c-0.1,0.5-0.4,0.9-0.8,1.1c-0.4,0.2-0.9,0.3-1.4,0.1l-5.8-2.4
	l-3.3,3.6c-0.4,0.5-1.1,0.6-1.7,0.4c-0.6-0.2-1-0.8-1-1.5v-4.1c0-0.2,0.1-0.4,0.2-0.5l8.2-8.9c0.3-0.3,0.3-0.8,0-1.1
	c-0.3-0.3-0.8-0.3-1.1,0l-9.9,8.8l-4.3-2.2C0.3,15.2,0,14.7,0,14.1c0-0.6,0.3-1.1,0.8-1.4L22.7,0.2C23.2-0.1,23.8-0.1,24.3,0.3
	L24.3,0.3z"/>
</svg>
