<?xml version="1.0" encoding="UTF-8"?>
<svg xmlns="http://www.w3.org/2000/svg" xmlns:xlink="http://www.w3.org/1999/xlink" width="34px" height="34px" viewBox="0 0 34 34" version="1.1">
<g id="surface1">
<path style=" stroke:none;fill-rule:nonzero;fill:rgb(100%,100%,100%);fill-opacity:1;" d="M 29.285156 3.914062 L 30.085938 4.714844 C 30.710938 5.335938 30.710938 6.351562 30.085938 6.96875 L 28.15625 8.90625 L 25.09375 5.84375 L 27.027344 3.914062 C 27.648438 3.289062 28.664062 3.289062 29.28125 3.914062 Z M 13.929688 17.015625 L 22.84375 8.09375 L 25.90625 11.15625 L 16.984375 20.070312 C 16.796875 20.257812 16.554688 20.398438 16.296875 20.476562 L 12.414062 21.582031 L 13.523438 17.695312 C 13.59375 17.4375 13.734375 17.199219 13.921875 17.007812 Z M 24.773438 1.660156 L 11.671875 14.757812 C 11.09375 15.335938 10.679688 16.046875 10.460938 16.820312 L 8.5625 23.460938 C 8.398438 24.015625 8.554688 24.617188 8.964844 25.03125 C 9.375 25.4375 9.976562 25.59375 10.53125 25.433594 L 17.171875 23.53125 C 17.953125 23.308594 18.664062 22.890625 19.234375 22.320312 L 32.339844 9.226562 C 34.203125 7.359375 34.203125 4.328125 32.339844 2.460938 L 31.539062 1.660156 C 29.671875 -0.203125 26.640625 -0.203125 24.773438 1.660156 Z M 5.84375 4.25 C 2.617188 4.25 0 6.867188 0 10.09375 L 0 28.15625 C 0 31.382812 2.617188 34 5.84375 34 L 23.90625 34 C 27.132812 34 29.75 31.382812 29.75 28.15625 L 29.75 20.71875 C 29.75 19.835938 29.039062 19.125 28.15625 19.125 C 27.273438 19.125 26.5625 19.835938 26.5625 20.71875 L 26.5625 28.15625 C 26.5625 29.625 25.375 30.8125 23.90625 30.8125 L 5.84375 30.8125 C 4.375 30.8125 3.1875 29.625 3.1875 28.15625 L 3.1875 10.09375 C 3.1875 8.625 4.375 7.4375 5.84375 7.4375 L 13.28125 7.4375 C 14.164062 7.4375 14.875 6.726562 14.875 5.84375 C 14.875 4.960938 14.164062 4.25 13.28125 4.25 Z M 5.84375 4.25 "/>
</g>
</svg>
