<?xml version="1.0" encoding="utf-8"?>
<!-- Generator: Adobe Illustrator 27.9.0, SVG Export Plug-In . SVG Version: 6.00 Build 0)  -->
<svg version="1.1" id="Calque_1" xmlns="http://www.w3.org/2000/svg" xmlns:xlink="http://www.w3.org/1999/xlink" x="0px" y="0px"
	 viewBox="0 0 14 16" style="enable-background:new 0 0 14 16;" xml:space="preserve">
<style type="text/css">
	.st0{fill:#D80000;}
</style>
<path class="st0" d="M4.2,0.6L4,1H1C0.4,1,0,1.4,0,2s0.4,1,1,1h12c0.6,0,1-0.4,1-1s-0.4-1-1-1h-3L9.8,0.6C9.6,0.2,9.3,0,8.9,0H5.1
	C4.7,0,4.4,0.2,4.2,0.6z M13,4H1l0.7,10.6c0,0.8,0.7,1.4,1.5,1.4h7.7c0.8,0,1.4-0.6,1.5-1.4L13,4z"/>
</svg>
