<?xml version="1.0" encoding="utf-8"?>
<!-- Generator: Adobe Illustrator 28.0.0, SVG Export Plug-In . SVG Version: 6.00 Build 0)  -->
<svg version="1.1" id="Calque_1" xmlns="http://www.w3.org/2000/svg" xmlns:xlink="http://www.w3.org/1999/xlink" x="0px" y="0px"
	 viewBox="0 0 640 512" style="enable-background:new 0 0 640 512;" xml:space="preserve">
<style type="text/css">
	.st0{fill:#FFFFFF;}
</style>
<path class="st0" d="M96,128C96,57.3,153.3,0,224,0s128,57.3,128,128s-57.3,128-128,128S96,198.7,96,128z M0,482.3
	C0,383.8,79.8,304,178.3,304h91.4c98.5,0,178.3,79.8,178.3,178.3c0,16.4-13.3,29.7-29.7,29.7H29.7C13.3,512,0,498.7,0,482.3z
	 M472,200h144c13.3,0,24,10.7,24,24s-10.7,24-24,24H472c-13.3,0-24-10.7-24-24S458.7,200,472,200z"/>
</svg>
