<?xml version="1.0" encoding="utf-8"?>
<!-- Generator: Adobe Illustrator 27.9.0, SVG Export Plug-In . SVG Version: 6.00 Build 0)  -->
<svg version="1.1" id="Calque_1" xmlns="http://www.w3.org/2000/svg" xmlns:xlink="http://www.w3.org/1999/xlink" x="0px" y="0px"
	 viewBox="0 0 384 512" style="enable-background:new 0 0 384 512;" xml:space="preserve">
<style type="text/css">
	.st0{fill:#FFFFFF;}
</style>
<path class="st0" d="M342.6,150.6c12.5-12.5,12.5-32.8,0-45.3s-32.8-12.5-45.3,0L192,210.7L86.6,105.4c-12.5-12.5-32.8-12.5-45.3,0
	s-12.5,32.8,0,45.3L146.7,256L41.4,361.4c-12.5,12.5-12.5,32.8,0,45.3s32.8,12.5,45.3,0L192,301.3l105.4,105.3
	c12.5,12.5,32.8,12.5,45.3,0s12.5-32.8,0-45.3L237.3,256L342.6,150.6z"/>
</svg>
