<?xml version="1.0" encoding="UTF-8"?>
<svg id="Calque_1" data-name="Calque 1" xmlns="http://www.w3.org/2000/svg" viewBox="0 0 36 36">
  <defs>
    <style>
      .cls-1 {
        fill: #fff;
        stroke-width: 0px;
      }
    </style>
  </defs>
  <path class="cls-1" d="m18,33.75c-8.7,0-15.75-7.05-15.75-15.75S9.3,2.25,18,2.25s15.75,7.05,15.75,15.75-7.05,15.75-15.75,15.75Zm0,2.25c9.94,0,18-8.06,18-18S27.94,0,18,0,0,8.06,0,18s8.06,18,18,18Z"/>
  <path class="cls-1" d="m15.6,9.3h4.8v2.4h-4.8v-2.4Zm-.6-2.4c-.99,0-1.8.81-1.8,1.8v3.6c0,.99.81,1.8,1.8,1.8h1.8v1.2H7.2c-.66,0-1.2.54-1.2,1.2s.54,1.2,1.2,1.2h3.6v1.2h-1.8c-.99,0-1.8.81-1.8,1.8v3.6c0,.99.81,1.8,1.8,1.8h6c.99,0,1.8-.81,1.8-1.8v-3.6c0-.99-.81-1.8-1.8-1.8h-1.8v-1.2h9.6v1.2h-1.8c-.99,0-1.8.81-1.8,1.8v3.6c0,.99.81,1.8,1.8,1.8h6c.99,0,1.8-.81,1.8-1.8v-3.6c0-.99-.81-1.8-1.8-1.8h-1.8v-1.2h3.6c.66,0,1.2-.54,1.2-1.2s-.54-1.2-1.2-1.2h-9.6v-1.2h1.8c.99,0,1.8-.81,1.8-1.8v-3.6c0-.99-.81-1.8-1.8-1.8h-6Zm-5.4,16.8v-2.4h4.8v2.4h-4.8Zm12-2.4h4.8v2.4h-4.8v-2.4Z"/>
</svg>