<?xml version="1.0" encoding="UTF-8"?>
<svg id="Calque_1" data-name="Calque 1" xmlns="http://www.w3.org/2000/svg" viewBox="0 0 36 36">
  <defs>
    <style>
      .cls-1 {
        fill: #fff;
        stroke-width: 0px;
      }
    </style>
  </defs>
  <path class="cls-1" d="m18,33.75c-8.7,0-15.75-7.05-15.75-15.75S9.3,2.25,18,2.25s15.75,7.05,15.75,15.75-7.05,15.75-15.75,15.75Zm0,2.25c9.94,0,18-8.06,18-18S27.94,0,18,0,0,8.06,0,18s8.06,18,18,18Z"/>
  <path class="cls-1" d="m18,18c2.76,0,5-2.24,5-5s-2.24-5-5-5-5,2.24-5,5,2.24,5,5,5Zm-1.79,1.88c-3.85,0-6.96,3.12-6.96,6.96,0,.64.52,1.16,1.16,1.16h15.18c.64,0,1.16-.52,1.16-1.16,0-3.85-3.12-6.96-6.96-6.96h-3.57Z"/>
</svg>