<?xml version="1.0" encoding="UTF-8"?>
<svg id="Calque_1" data-name="Calque 1" xmlns="http://www.w3.org/2000/svg" viewBox="0 0 36 36">
  <defs>
    <style>
      .cls-1 {
        fill: #fff;
        stroke-width: 0px;
      }
    </style>
  </defs>
  <path class="cls-1" d="m18,33.75c-8.7,0-15.75-7.05-15.75-15.75S9.3,2.25,18,2.25s15.75,7.05,15.75,15.75-7.05,15.75-15.75,15.75Zm0,2.25c9.94,0,18-8.06,18-18S27.94,0,18,0,0,8.06,0,18s8.06,18,18,18Z"/>
  <path class="cls-1" d="m18.54,5.92c-.3-.3-.79-.3-1.09,0,0,0,0,0,0,0l-9.23,9.23c-.14.14-.22.34-.22.54v10.77c0,.42.34.77.77.77h6.92c.42,0,.77-.34.77-.77v-6.15h3.08v6.15c0,.42.34.77.77.77h6.92c.42,0,.77-.34.77-.77v-10.77c0-.2-.08-.4-.22-.54l-2.08-2.08v-5.07c0-.42-.34-.77-.77-.77h-1.54c-.42,0-.77.34-.77.77v1.99l-4.07-4.07Zm-9.01,19.78v-9.68l8.46-8.46,8.46,8.46v9.68h-5.38v-6.15c0-.42-.34-.77-.77-.77h-4.62c-.42,0-.77.34-.77.77v6.15h-5.38Z"/>
</svg>