<?xml version="1.0" encoding="UTF-8"?>
<svg id="Calque_1" data-name="Calque 1" xmlns="http://www.w3.org/2000/svg" viewBox="0 0 36 36">
  <defs>
    <style>
      .cls-1 {
        fill: #fff;
        stroke-width: 0px;
      }
    </style>
  </defs>
  <path class="cls-1" d="m18,33.75c-8.7,0-15.75-7.05-15.75-15.75S9.3,2.25,18,2.25s15.75,7.05,15.75,15.75-7.05,15.75-15.75,15.75Zm0,2.25c9.94,0,18-8.06,18-18S27.94,0,18,0,0,8.06,0,18s8.06,18,18,18Z"/>
  <path class="cls-1" d="m11.12,8c1.73,0,3.12,1.4,3.12,3.12s-1.4,3.12-3.12,3.12-3.12-1.4-3.12-3.12,1.4-3.12,3.12-3.12Zm14.38,0c1.73,0,3.12,1.4,3.12,3.12s-1.4,3.12-3.12,3.12-3.12-1.4-3.12-3.12,1.4-3.12,3.12-3.12ZM5.5,19.67c0-2.3,1.87-4.17,4.17-4.17h1.67c.62,0,1.21.14,1.74.38-.05.28-.07.57-.07.87,0,1.49.66,2.83,1.69,3.75H6.33c-.46,0-.83-.38-.83-.83Zm15.83.83h-.03c1.04-.92,1.69-2.26,1.69-3.75,0-.3-.03-.59-.07-.87.53-.25,1.12-.38,1.74-.38h1.67c2.3,0,4.17,1.87,4.17,4.17,0,.46-.37.83-.83.83h-8.34Zm-7.08-3.75c0-2.07,1.68-3.75,3.75-3.75s3.75,1.68,3.75,3.75-1.68,3.75-3.75,3.75-3.75-1.68-3.75-3.75Zm-3.75,10.21c0-2.87,2.33-5.21,5.21-5.21h4.59c2.87,0,5.21,2.33,5.21,5.21,0,.57-.46,1.04-1.04,1.04h-12.91c-.57,0-1.04-.46-1.04-1.04Z"/>
</svg>